<svg xmlns="http://www.w3.org/2000/svg" id="Layer_1" width="406" height="306" class="illustration styles_illustrationTablet__1DWOa" data-name="Layer 1" viewBox="0 0 400 300"><polygon fill="#e6e6e6" points="198.79 251.33 159.59 251.33 159.59 248.33 195.79 248.33 195.79 195.01 198.79 195.01 198.79 251.33"/><path fill="#0070f3" d="M276.48,129.37c-.93,0-1.84.06-2.74.15,0-.43,0-.86,0-1.29a39,39,0,0,0-39-39c-.55,0-1.1,0-1.65,0A46.65,46.65,0,1,0,141,101a39,39,0,0,0,1.47,77.93h134a24.77,24.77,0,0,0,0-49.54Z"/><rect width="92.99" height="58.61" x="155.27" y="153.28" fill="#ffd200"/><rect width="92.99" height="58.61" x="155.27" y="153.28" opacity=".09"/><rect width="109.38" height="28.75" x="147.25" y="128.68" fill="#ffd200"/><rect width="65.26" height="6.69" x="159.59" y="139.24" fill="#24285b"/><circle cx="238.79" cy="143.58" r="5.46" fill="#fff"/><rect width="109.38" height="28.75" x="147.25" y="163.34" fill="#ffd200"/><rect width="65.26" height="6.69" x="159.59" y="173.89" fill="#24285b"/><circle cx="238.79" cy="178.24" r="5.46" fill="#fff"/><rect width="109.38" height="28.75" x="147.25" y="198" fill="#ffd200"/><rect width="65.26" height="6.69" x="159.59" y="208.55" fill="#24285b"/><circle cx="238.79" cy="212.9" r="5.46" fill="#fff"/><rect width="36.04" height="3" x="197.29" y="248.33" fill="#e6e6e6"/><circle cx="161.18" cy="249.95" r="5.9" fill="#c1c1c1"/><circle cx="233.33" cy="249.95" r="5.9" fill="#c1c1c1"/></svg>